<svg width="34" height="25" viewBox="0 0 34 25" fill="none" xmlns="http://www.w3.org/2000/svg">
<path d="M8.40039 1.19727C12.2664 1.19727 15.4004 4.33127 15.4004 8.19727C15.4004 9.02272 15.3642 9.73831 15.2344 10.626L15.1729 11.0176C14.9337 12.4469 14.5129 13.8409 13.8711 15.1611L13.582 15.7227C11.576 19.4136 7.99488 22.0415 2.36914 23.0195C4.86622 21.6656 6.82182 20.1027 8.04101 18.5498L8.30566 18.1963C8.54512 17.8608 8.70875 17.6067 8.8418 17.3369C8.96928 17.0783 9.05874 16.8231 9.16113 16.542L9.64941 15.2002L8.22168 15.2002C4.60271 15.2002 1.40039 12.0737 1.40039 8.19727C1.40039 4.33137 4.53454 1.19743 8.40039 1.19727ZM26.001 1.19727C29.8668 1.19742 33.001 4.33137 33.001 8.19727C33.001 9.0227 32.9648 9.73836 32.835 10.626L32.7734 11.0176C32.5342 12.447 32.1125 13.8409 31.4707 15.1611L31.1826 15.7227C29.1767 19.4136 25.5952 22.0404 19.9697 23.0186C22.4663 21.6647 24.4216 20.1025 25.6406 18.5498L25.9062 18.1963C26.1457 17.8608 26.3084 17.6067 26.4414 17.3369C26.5689 17.0782 26.6583 16.8232 26.7607 16.542L27.25 15.2002L25.8213 15.2002C22.2023 15.2002 19.001 12.0737 19.001 8.19727C19.001 4.33127 22.135 1.19727 26.001 1.19727Z" stroke="#00C2C7" stroke-width="2"/>
</svg>
